<svg version="1.1" id="Layer_1" xmlns="http://www.w3.org/2000/svg" xmlns:xlink="http://www.w3.org/1999/xlink" x="0px" y="0px"
	 width="100%" viewBox="0 0 192 192" enable-background="new 0 0 192 192" xml:space="preserve">
<path fill="#F2FAF7" opacity="1.000000" stroke="none" 
	d="
M1.000002,159.000000 
	C1.000000,117.979103 1.000000,76.958214 1.314877,35.768463 
	C2.011557,35.282764 2.613119,35.037724 2.743480,34.638729 
	C7.906339,18.836733 18.311752,8.253297 34.072201,2.900359 
	C34.542377,2.740668 34.697819,1.654310 35.000000,1.000000 
	C76.020897,1.000000 117.041786,1.000000 158.231537,1.314870 
	C158.717224,2.011546 158.962265,2.613114 159.361252,2.743470 
	C175.163254,7.906329 185.746689,18.311756 191.099640,34.072205 
	C191.259338,34.542377 192.345688,34.697819 193.000000,35.000000 
	C193.000000,76.020897 193.000000,117.041786 192.685120,158.231537 
	C191.988449,158.717239 191.386887,158.962280 191.256516,159.361252 
	C186.093674,175.163254 175.688248,185.746674 159.927826,191.099640 
	C159.457642,191.259338 159.302185,192.345688 159.000000,193.000000 
	C117.979103,193.000000 76.958214,193.000000 35.768463,192.685120 
	C35.282768,191.988449 35.037731,191.386887 34.638741,191.256531 
	C18.836733,186.093674 8.253291,175.688248 2.900358,159.927780 
	C2.740668,159.457611 1.654312,159.302170 1.000002,159.000000 
M131.628784,73.896019 
	C131.111481,71.799667 130.411880,69.728081 130.122849,67.600716 
	C129.759064,64.922989 128.463806,63.889420 125.790421,64.079292 
	C123.356178,64.252182 120.899971,64.115906 118.484589,64.115906 
	C115.094788,78.333733 111.852547,91.932625 108.285782,106.892670 
	C105.283638,91.857498 102.544945,78.141762 99.787682,64.332977 
	C95.618126,64.332977 91.838760,64.332977 87.747742,64.332977 
	C87.917603,66.202049 87.889809,67.872345 88.241425,69.458527 
	C91.603722,84.626236 95.087944,99.767052 98.419609,114.941391 
	C100.998383,126.686607 100.923805,126.703705 112.938004,125.886177 
	C113.091759,125.875717 113.237473,125.747055 113.880829,125.430717 
	C116.981766,113.002090 120.170273,100.222496 123.358772,87.442902 
	C123.644547,87.443817 123.930313,87.444733 124.216087,87.445648 
	C127.430099,100.238403 130.644119,113.031158 133.849945,125.791336 
	C138.333298,125.791336 142.457535,125.791336 146.786331,125.791336 
	C151.305603,105.300987 155.788467,84.975784 160.334244,64.365303 
	C158.662491,64.250595 157.684433,64.140930 156.704712,64.122910 
	C147.874130,63.960499 147.865616,63.963459 146.083984,72.492905 
	C145.709793,74.284302 145.442001,76.097649 145.091919,77.894402 
	C143.355530,86.806137 141.608002,95.715714 139.864395,104.626045 
	C139.508255,104.625526 139.152130,104.625008 138.795990,104.624489 
	C136.468933,94.653587 134.141876,84.682686 131.628784,73.896019 
M52.829922,85.658539 
	C47.998592,80.576134 49.505798,75.199333 56.234573,73.512802 
	C63.296844,71.742668 67.819092,74.465164 70.489754,82.131897 
	C74.404526,82.131897 78.332840,82.131897 82.451233,82.131897 
	C82.197823,73.126724 77.433319,67.762871 69.612762,64.935188 
	C61.930397,62.157482 54.190948,62.656452 46.818993,66.068466 
	C41.199203,68.669510 37.530632,73.117943 37.039120,79.491470 
	C36.542480,85.931419 39.694305,90.688301 44.950485,94.031799 
	C47.450733,95.622223 50.213921,96.837090 52.947456,98.014359 
	C57.354256,99.912285 62.125011,101.166191 66.158241,103.642830 
	C68.079002,104.822281 69.686134,108.260452 69.530891,110.546112 
	C69.394989,112.546906 66.965385,115.208817 64.904938,116.116325 
	C57.212082,119.504585 49.985394,115.570000 47.469837,107.137749 
	C43.401497,107.137749 39.331806,107.137749 35.050556,107.137749 
	C35.478081,113.701973 38.010143,118.747864 43.324196,122.030685 
	C52.735390,127.844543 62.751575,128.589508 72.898743,124.333092 
	C80.603592,121.101151 83.579865,114.428062 82.130920,106.188026 
	C80.716652,98.145195 74.667061,94.842560 68.218903,91.952301 
	C63.394135,89.789688 58.399334,88.006432 52.829922,85.658539 
z"/>
<path fill="#000000" opacity="1.000000" stroke="none" 
	d="
M34.531342,1.000000 
	C34.697819,1.654310 34.542377,2.740668 34.072201,2.900359 
	C18.311752,8.253297 7.906339,18.836733 2.743480,34.638729 
	C2.613119,35.037724 2.011557,35.282764 1.314877,35.299805 
	C1.000000,23.740095 1.000000,12.480190 1.000000,1.000000 
	C12.019917,1.000000 23.041300,1.000000 34.531342,1.000000 
z"/>
<path fill="#000000" opacity="1.000000" stroke="none" 
	d="
M193.000000,34.531342 
	C192.345688,34.697819 191.259338,34.542377 191.099640,34.072205 
	C185.746689,18.311756 175.163254,7.906329 159.361252,2.743470 
	C158.962265,2.613114 158.717224,2.011546 158.700195,1.314870 
	C170.259903,1.000000 181.519821,1.000000 193.000000,1.000000 
	C193.000000,12.019917 193.000000,23.041300 193.000000,34.531342 
z"/>
<path fill="#000000" opacity="1.000000" stroke="none" 
	d="
M1.000002,159.468658 
	C1.654312,159.302170 2.740668,159.457611 2.900358,159.927780 
	C8.253291,175.688248 18.836733,186.093674 34.638741,191.256531 
	C35.037731,191.386887 35.282768,191.988449 35.299805,192.685120 
	C23.740093,193.000000 12.480186,193.000000 1.000000,193.000000 
	C1.000000,181.980087 1.000000,170.958694 1.000002,159.468658 
z"/>
<path fill="#000000" opacity="1.000000" stroke="none" 
	d="
M159.468658,193.000000 
	C159.302185,192.345688 159.457642,191.259338 159.927826,191.099640 
	C175.688248,185.746674 186.093674,175.163254 191.256516,159.361252 
	C191.386887,158.962280 191.988449,158.717239 192.685120,158.700195 
	C193.000000,170.259903 193.000000,181.519821 193.000000,193.000000 
	C181.980087,193.000000 170.958694,193.000000 159.468658,193.000000 
z"/>
<path fill="#1E59DC" opacity="1.000000" stroke="none" 
	d="
M131.721802,74.303902 
	C134.141876,84.682686 136.468933,94.653587 138.795990,104.624489 
	C139.152130,104.625008 139.508255,104.625526 139.864395,104.626045 
	C141.608002,95.715714 143.355530,86.806137 145.091919,77.894402 
	C145.442001,76.097649 145.709793,74.284302 146.083984,72.492905 
	C147.865616,63.963459 147.874130,63.960499 156.704712,64.122910 
	C157.684433,64.140930 158.662491,64.250595 160.334244,64.365303 
	C155.788467,84.975784 151.305603,105.300987 146.786331,125.791336 
	C142.457535,125.791336 138.333298,125.791336 133.849945,125.791336 
	C130.644119,113.031158 127.430099,100.238403 124.216087,87.445648 
	C123.930313,87.444733 123.644547,87.443817 123.358772,87.442902 
	C120.170273,100.222496 116.981766,113.002090 113.880829,125.430717 
	C113.237473,125.747055 113.091759,125.875717 112.938004,125.886177 
	C100.923805,126.703705 100.998383,126.686607 98.419609,114.941391 
	C95.087944,99.767052 91.603722,84.626236 88.241425,69.458527 
	C87.889809,67.872345 87.917603,66.202049 87.747742,64.332977 
	C91.838760,64.332977 95.618126,64.332977 99.787682,64.332977 
	C102.544945,78.141762 105.283638,91.857498 108.285782,106.892670 
	C111.852547,91.932625 115.094788,78.333733 118.484589,64.115906 
	C120.899971,64.115906 123.356178,64.252182 125.790421,64.079292 
	C128.463806,63.889420 129.759064,64.922989 130.122849,67.600716 
	C130.411880,69.728081 131.111481,71.799667 131.721802,74.303902 
z"/>
<path fill="#1F59DC" opacity="1.000000" stroke="none" 
	d="
M53.155083,85.856400 
	C58.399334,88.006432 63.394135,89.789688 68.218903,91.952301 
	C74.667061,94.842560 80.716652,98.145195 82.130920,106.188026 
	C83.579865,114.428062 80.603592,121.101151 72.898743,124.333092 
	C62.751575,128.589508 52.735390,127.844543 43.324196,122.030685 
	C38.010143,118.747864 35.478081,113.701973 35.050556,107.137749 
	C39.331806,107.137749 43.401497,107.137749 47.469837,107.137749 
	C49.985394,115.570000 57.212082,119.504585 64.904938,116.116325 
	C66.965385,115.208817 69.394989,112.546906 69.530891,110.546112 
	C69.686134,108.260452 68.079002,104.822281 66.158241,103.642830 
	C62.125011,101.166191 57.354256,99.912285 52.947456,98.014359 
	C50.213921,96.837090 47.450733,95.622223 44.950485,94.031799 
	C39.694305,90.688301 36.542480,85.931419 37.039120,79.491470 
	C37.530632,73.117943 41.199203,68.669510 46.818993,66.068466 
	C54.190948,62.656452 61.930397,62.157482 69.612762,64.935188 
	C77.433319,67.762871 82.197823,73.126724 82.451233,82.131897 
	C78.332840,82.131897 74.404526,82.131897 70.489754,82.131897 
	C67.819092,74.465164 63.296844,71.742668 56.234573,73.512802 
	C49.505798,75.199333 47.998592,80.576134 53.155083,85.856400 
z"/>
</svg>